<svg width="14" height="17" viewBox="0 0 14 17" fill="none" xmlns="http://www.w3.org/2000/svg">
<path d="M12.0983 6.79769C11.8353 6.53468 11.4306 6.53468 11.1676 6.79769L7.66763 10.2977V0.66763C7.66763 0.303468 7.36416 0 7 0C6.63584 0 6.33237 0.303468 6.33237 0.66763V10.2977L2.8526 6.79769C2.5896 6.53468 2.18497 6.53468 1.92197 6.79769C1.65896 7.06069 1.65896 7.46532 1.92197 7.72832L6.55491 12.3613C6.61561 12.422 6.69653 12.4624 6.77746 12.5029C6.83815 12.5434 6.91908 12.5434 7 12.5434C7.08093 12.5434 7.16185 12.5231 7.24278 12.4827C7.3237 12.4422 7.40463 12.4017 7.46532 12.341L12.0983 7.70809C12.341 7.48555 12.341 7.06069 12.0983 6.79769Z" fill="black"/>
<path d="M13.3324 16.1851H0.66763C0.303468 16.1851 0 15.8816 0 15.5174V11.2284C0 10.8643 0.303468 10.5608 0.66763 10.5608C1.03179 10.5608 1.33526 10.8643 1.33526 11.2284V14.87H12.6647V11.2284C12.6647 10.8643 12.9682 10.5608 13.3324 10.5608C13.6965 10.5608 14 10.8643 14 11.2284V15.5174C13.9798 15.8816 13.6965 16.1851 13.3324 16.1851Z" fill="black"/>
</svg>
