<svg width="9" height="16" viewBox="0 0 9 16" fill="none" xmlns="http://www.w3.org/2000/svg">
<path d="M4.16724 1.80785e-05C3.96933 1.80785e-05 3.79097 0.121622 3.71024 0.309794L0.375843 8.13594H0.376494C0.30749 8.29762 0.321812 8.48444 0.414251 8.63255C0.506692 8.78065 0.664231 8.86965 0.833484 8.86965H2.43427L0.0341318 15.2881V15.2888C-0.0537511 15.5239 0.0328299 15.7915 0.239199 15.9233C0.445565 16.0551 0.713127 16.0137 0.873914 15.8248L8.87393 6.43344C9.00478 6.2799 9.03668 6.06048 8.95596 5.87364C8.87523 5.68614 8.69686 5.56522 8.50026 5.56522H6.14245L8.4476 0.755449C8.52506 0.593762 8.51725 0.401498 8.42611 0.247289C8.33497 0.0937554 8.17353 0 8.00036 0L4.16724 1.80785e-05ZM4.49208 1.0435H7.19102L4.88588 5.85328C4.80841 6.01496 4.81622 6.20723 4.90736 6.36144C4.9985 6.51497 5.15994 6.60873 5.33311 6.60873H7.38694L1.98055 12.9552L3.63276 8.53744H3.63211C3.69265 8.37711 3.67247 8.19573 3.57938 8.05375C3.48629 7.91176 3.332 7.82616 3.16665 7.82616H1.60298L4.49208 1.0435Z" fill="black"/>
</svg>
